# xmcd CD database file
#
# Track frame offsets:
#	150
#	23319
#	53367
#	82335
#	100927
#	125761
#	156363
#	208893
#	249932
#	273907
#
# Disc length: 4049 seconds
#
# Revision: 0
# Processed by: cddbd v1.4PL0 Copyright (c) Steve Scherf et al.
# Submitted via: CDex 1.50
#
DISCID=800fcf0a
DTITLE=Bill Evans - Portraiture
DYEAR=1969
DGENRE=Jazz
TTITLE0=Alfie
TTITLE1=Waltz For Debbie
TTITLE2=34 Skidoo
TTITLE3=Blue In Green
TTITLE4=Detour Ahead
TTITLE5=Emily
TTITLE6=Nardis
TTITLE7=Peri's Scope
TTITLE8=Some Other Time
TTITLE9=Who Can I Turn To
EXTD=YEAR: 1969
EXTT0=
EXTT1=
EXTT2=
EXTT3=
EXTT4=
EXTT5=
EXTT6=
EXTT7=
EXTT8=
EXTT9=
PLAYORDER=
